<svg height="512pt" viewBox="0 0 512.001 512" width="512pt" xmlns="http://www.w3.org/2000/svg"><path d="m456.757812 464.320312-401.507812.011719c-11.449219 0-20.730469-9.28125-20.730469-20.730469l-.007812-271.421874c0-11.449219 9.28125-20.730469 20.730469-20.730469l401.507812-.011719c11.449219 0 20.730469 9.28125 20.730469 20.730469l.007812 271.421875c0 11.449218-9.28125 20.730468-20.730469 20.730468zm0 0" fill="#5793c9"/><path d="m477.488281 443.464844c0 11.511718-9.21875 20.859375-20.601562 20.859375h-30.90625c11.382812 0 20.605469-9.347657 20.605469-20.859375l-.011719-271.167969c0-11.503906-9.1875-20.828125-20.550781-20.859375h30.851562c11.382812 0 20.605469 9.335938 20.605469 20.859375zm0 0" fill="#4c87bd"/><path d="m65.425781 429.042969-.007812-242.304688c0-2.210937 1.789062-4 4-4l373.160156-.011719c2.207031 0 4 1.789063 4 4l.007813 242.304688c0 2.210938-1.792969 4-4 4l-373.160157.011719c-2.210937 0-4-1.789063-4-4zm0 0" fill="#b5fcff"/><path d="m442.574219 182.726562h-26.902344l.007813 250.304688-350.257813.011719 377.160156-.007813c2.210938 0 4-1.792968 4-4l-.007812-242.308594c0-2.210937-1.789063-4-4-4zm0 0" fill="#71f6fc"/><path d="m512 470.792969v10.292969c0 17.070312-13.835938 30.90625-30.894531 30.90625h-30.90625l-419.292969.007812c-17.070312 0-30.90625-13.835938-30.90625-30.894531v-10.300781c0-5.6875 4.613281-10.304688 10.300781-10.304688l460.511719-.007812h30.886719c5.6875 0 10.300781 4.613281 10.300781 10.300781zm0 0" fill="#dcdfe8"/><path d="m481.09375 481.085938v-10.292969c0-5.675781-4.582031-10.269531-10.25-10.300781h30.855469c5.6875 0 10.300781 4.613281 10.300781 10.300781v10.292969c0 17.070312-13.835938 30.902343-30.894531 30.902343h-30.90625c17.058593.003907 30.894531-13.832031 30.894531-30.902343zm0 0" fill="#cbcdd9"/><path d="m299.078125 487.273438-86.152344.003906c-8.640625 0-15.644531-7.003906-15.644531-15.644532v-11.136718l117.441406-.003906v11.136718c0 8.640625-7.003906 15.644532-15.644531 15.644532zm0 0" fill="#bbbbc7"/><path d="m374.472656 180.226562c0-65.613281-53.046875-118.800781-118.472656-118.800781s-118.472656 53.1875-118.472656 118.800781c0 40.152344 19.863281 75.648438 50.277344 97.152344 13.429687 9.496094 21.234374 25.109375 21.234374 41.589844h93.921876c0-16.480469 7.804687-32.09375 21.234374-41.589844 30.414063-21.503906 50.277344-57 50.277344-97.152344zm0 0" fill="#ffd659"/><path d="m256 61.425781c-5.238281 0-10.394531.34375-15.453125 1.003907 58.125 7.59375 103.019531 57.433593 103.019531 117.796874 0 40.152344-19.863281 75.648438-50.277344 97.152344-13.429687 9.496094-21.234374 25.109375-21.234374 41.589844h30.90625c0-16.480469 7.804687-32.09375 21.234374-41.589844 30.410157-21.503906 50.273438-57 50.273438-97.152344.003906-65.613281-53.042969-118.800781-118.46875-118.800781zm0 0" fill="#ffbd54"/><path d="m299.265625 360.167969h-86.535156v11.972656c0 13.234375 10.730469 23.964844 23.964843 23.964844h38.605469c13.238281 0 23.964844-10.730469 23.964844-23.964844zm0 0" fill="#5793c9"/><path d="m268.363281 360.167969v11.972656c0 13.234375-10.730469 23.964844-23.964843 23.964844h30.902343c13.234375 0 23.964844-10.730469 23.964844-23.964844v-11.972656zm0 0" fill="#4c87bd"/><path d="m304.957031 305.449219h-97.914062c-4.253907 0-7.703125 3.449219-7.703125 7.703125v46.40625c0 4.253906 3.449218 7.703125 7.703125 7.703125h97.914062c4.253907 0 7.703125-3.449219 7.703125-7.703125v-46.40625c0-4.253906-3.449218-7.703125-7.703125-7.703125zm0 0" fill="#ff4b26"/><path d="m304.957031 305.449219h-30.90625c4.253907 0 7.703125 3.449219 7.703125 7.703125v46.40625c0 4.253906-3.449218 7.703125-7.703125 7.703125h30.90625c4.253907 0 7.703125-3.449219 7.703125-7.703125v-46.40625c0-4.253906-3.449218-7.703125-7.703125-7.703125zm0 0" fill="#eb4523"/><path d="m267.953125 328.855469h-23.90625c-4.144531 0-7.5 3.355469-7.5 7.5 0 4.140625 3.355469 7.5 7.5 7.5h23.90625c4.144531 0 7.5-3.359375 7.5-7.5 0-4.144531-3.355469-7.5-7.5-7.5zm0 0" fill="#b5fcff"/><g fill="#ffa954"><path d="m255.914062 0c-4.144531 0-7.5 3.359375-7.5 7.5v24.722656c0 4.144532 3.355469 7.5 7.5 7.5 4.144532 0 7.5-3.355468 7.5-7.5v-24.722656c0-4.140625-3.359374-7.5-7.5-7.5zm0 0"/><path d="m170.246094 28.261719c-2.070313-3.589844-6.65625-4.816407-10.242188-2.746094-3.589844 2.070313-4.816406 6.660156-2.746094 10.246094l12.363282 21.410156c1.390625 2.40625 3.910156 3.753906 6.5 3.753906 1.273437 0 2.5625-.324219 3.742187-1.007812 3.589844-2.070313 4.816407-6.65625 2.746094-10.246094zm0 0"/><path d="m121.355469 105.183594-21.410157-12.359375c-3.585937-2.074219-8.175781-.84375-10.246093 2.746093-2.070313 3.585938-.84375 8.171876 2.746093 10.242188l21.410157 12.363281c1.179687.683594 2.46875 1.003907 3.742187 1.003907 2.59375 0 5.113282-1.34375 6.503906-3.75 2.070313-3.585938.839844-8.171876-2.746093-10.246094zm0 0"/><path d="m422.1875 95.140625c-2.070312-3.589844-6.660156-4.816406-10.246094-2.746094l-21.414062 12.363281c-3.585938 2.070313-4.8125 6.65625-2.742188 10.242188 1.386719 2.40625 3.910156 3.753906 6.5 3.753906 1.273438 0 2.5625-.324218 3.742188-1.007812l21.414062-12.363282c3.585938-2.070312 4.816406-6.65625 2.746094-10.242187zm0 0"/><path d="m351.566406 24.773438c-3.589844-2.074219-8.171875-.84375-10.242187 2.742187l-12.363281 21.414063c-2.070313 3.585937-.84375 8.171874 2.746093 10.246093 1.179688.679688 2.46875 1.003907 3.742188 1.003907 2.589843 0 5.113281-1.34375 6.5-3.75l12.363281-21.414063c2.074219-3.585937.84375-8.171875-2.746094-10.242187zm0 0"/></g></svg>