<?xml version="1.0" encoding="iso-8859-1"?>
<!-- Generator: Adobe Illustrator 19.0.0, SVG Export Plug-In . SVG Version: 6.00 Build 0)  -->
<svg version="1.1" id="Capa_1" xmlns="http://www.w3.org/2000/svg" xmlns:xlink="http://www.w3.org/1999/xlink" x="0px" y="0px"
	 viewBox="0 0 512 512" style="enable-background:new 0 0 512 512;" xml:space="preserve">
<path style="fill:#ECF0F1;" d="M483.31,485.517H28.69c-15.846,0-28.69-12.844-28.69-28.69V105.931h512v350.897
	C512,472.673,499.156,485.517,483.31,485.517z"/>
<path style="fill:#687492;" d="M512,105.931H0V28.69C0,12.844,12.844,0,28.69,0H483.31C499.156,0,512,12.844,512,28.69V105.931z"/>
<rect x="35.31" y="35.31" style="fill:#E64C3C;" width="35.31" height="35.31"/>
<rect x="105.931" y="35.31" style="fill:#F0C419;" width="35.31" height="35.31"/>
<rect x="176.552" y="35.31" style="fill:#24AE5F;" width="35.31" height="35.31"/>
<path style="fill:#E64C3C;" d="M479.497,512H32.503C14.557,512,0,497.443,0,479.497V300.138h512v179.359
	C512,497.443,497.443,512,479.497,512z"/>
<g>
	<path style="fill:#24AE5F;" d="M44.138,256c-2.26,0-4.52-0.865-6.241-2.586c-3.452-3.452-3.452-9.031,0-12.482l61.793-61.793
		c3.443-3.452,9.039-3.452,12.482,0c3.452,3.452,3.452,9.031,0,12.482l-61.793,61.793C48.658,255.135,46.398,256,44.138,256z"/>
	<path style="fill:#24AE5F;" d="M167.724,256c-2.26,0-4.52-0.865-6.241-2.586L99.69,191.62c-3.452-3.452-3.452-9.031,0-12.482
		c3.443-3.452,9.039-3.452,12.482,0l61.793,61.793c3.452,3.452,3.452,9.031,0,12.482C172.244,255.135,169.984,256,167.724,256z"/>
	<path style="fill:#24AE5F;" d="M141.241,229.517c-2.26,0-4.52-0.865-6.241-2.586c-3.452-3.452-3.452-9.031,0-12.482l61.793-61.793
		c3.443-3.452,9.039-3.452,12.482,0c3.452,3.452,3.452,9.031,0,12.482l-61.793,61.793
		C145.761,228.652,143.501,229.517,141.241,229.517z"/>
	<path style="fill:#24AE5F;" d="M264.828,229.517c-2.26,0-4.52-0.865-6.241-2.586l-61.793-61.793c-3.452-3.452-3.452-9.031,0-12.482
		c3.443-3.452,9.039-3.452,12.482,0l61.793,61.793c3.452,3.452,3.452,9.031,0,12.482
		C269.347,228.652,267.087,229.517,264.828,229.517z"/>
</g>
<g>
	<path style="fill:#FFFFFF;" d="M247.172,450.207c-2.26,0-4.52-0.865-6.241-2.586c-3.452-3.452-3.452-9.031,0-12.482l61.793-61.793
		c3.452-3.452,9.031-3.452,12.482,0c3.452,3.452,3.452,9.031,0,12.482l-61.793,61.793
		C251.692,449.342,249.432,450.207,247.172,450.207z"/>
	<path style="fill:#FFFFFF;" d="M370.759,450.207c-2.26,0-4.52-0.865-6.241-2.586l-61.793-61.793c-3.452-3.452-3.452-9.031,0-12.482
		c3.452-3.452,9.031-3.452,12.482,0L377,435.138c3.452,3.452,3.452,9.031,0,12.482C375.278,449.342,373.018,450.207,370.759,450.207
		z"/>
	<path style="fill:#FFFFFF;" d="M344.276,423.724c-2.26,0-4.52-0.865-6.241-2.586c-3.452-3.452-3.452-9.031,0-12.482l61.793-61.793
		c3.452-3.452,9.031-3.452,12.482,0c3.452,3.452,3.452,9.031,0,12.482l-61.793,61.793
		C348.796,422.859,346.536,423.724,344.276,423.724z"/>
	<path style="fill:#FFFFFF;" d="M467.862,423.724c-2.26,0-4.52-0.865-6.241-2.586l-61.793-61.793c-3.452-3.452-3.452-9.031,0-12.482
		s9.031-3.452,12.482,0l61.793,61.793c3.452,3.452,3.452,9.031,0,12.482C472.382,422.859,470.122,423.724,467.862,423.724z"/>
</g>
<path style="fill:#4482C3;" d="M450.207,256H326.621c-9.754,0-17.655-7.901-17.655-17.655l0,0c0-9.754,7.901-17.655,17.655-17.655
	h123.586c9.754,0,17.655,7.901,17.655,17.655l0,0C467.862,248.099,459.961,256,450.207,256z"/>
<g>
	<path style="fill:#BDC3C7;" d="M441.379,158.897H308.966c-4.873,0-8.828-3.955-8.828-8.828c0-4.873,3.955-8.828,8.828-8.828
		h132.414c4.873,0,8.828,3.955,8.828,8.828C450.207,154.942,446.252,158.897,441.379,158.897z"/>
	<path style="fill:#BDC3C7;" d="M467.862,194.207H308.966c-4.873,0-8.828-3.955-8.828-8.828c0-4.873,3.955-8.828,8.828-8.828
		h158.897c4.873,0,8.828,3.955,8.828,8.828C476.69,190.252,472.735,194.207,467.862,194.207z"/>
</g>
<path style="fill:#F0C419;" d="M185.379,459.034H61.793c-9.754,0-17.655-7.901-17.655-17.655l0,0
	c0-9.754,7.901-17.655,17.655-17.655h123.586c9.754,0,17.655,7.901,17.655,17.655l0,0
	C203.034,451.134,195.134,459.034,185.379,459.034z"/>
<g>
	<path style="fill:#FFFFFF;" d="M176.552,361.931H44.138c-4.873,0-8.828-3.955-8.828-8.828c0-4.873,3.955-8.828,8.828-8.828h132.414
		c4.873,0,8.828,3.955,8.828,8.828C185.379,357.976,181.425,361.931,176.552,361.931z"/>
	<path style="fill:#FFFFFF;" d="M203.034,397.241H44.138c-4.873,0-8.828-3.955-8.828-8.828s3.955-8.828,8.828-8.828h158.897
		c4.873,0,8.828,3.955,8.828,8.828S207.907,397.241,203.034,397.241z"/>
</g>
<g>
</g>
<g>
</g>
<g>
</g>
<g>
</g>
<g>
</g>
<g>
</g>
<g>
</g>
<g>
</g>
<g>
</g>
<g>
</g>
<g>
</g>
<g>
</g>
<g>
</g>
<g>
</g>
<g>
</g>
</svg>
