<?xml version="1.0" standalone="no"?>
<!DOCTYPE svg PUBLIC "-//W3C//DTD SVG 20010904//EN"
 "http://www.w3.org/TR/2001/REC-SVG-20010904/DTD/svg10.dtd">
<svg version="1.0" xmlns="http://www.w3.org/2000/svg"
 width="260.000000pt" height="260.000000pt" viewBox="0 0 260.000000 260.000000"
 preserveAspectRatio="xMidYMid meet">
<metadata>
Created by potrace 1.11, written by Peter Selinger 2001-2013
</metadata>
<g transform="translate(0.000000,260.000000) scale(0.100000,-0.100000)"
fill="#000000" stroke="none">
<path d="M1153 2550 c-285 -36 -533 -158 -739 -364 -185 -185 -292 -385 -350
-651 -24 -110 -24 -360 0 -470 58 -266 165 -466 350 -651 185 -185 385 -292
651 -350 110 -24 360 -24 470 0 266 58 466 165 651 350 185 185 292 385 350
651 24 110 24 360 0 470 -58 266 -165 466 -350 651 -185 185 -392 296 -648
348 -97 20 -290 28 -385 16z m-238 -687 c55 -89 103 -164 106 -167 3 -4 53 70
110 164 l104 170 133 0 132 0 0 -265 c0 -146 2 -265 4 -265 3 0 123 91 268
203 229 177 307 235 288 215 -3 -3 -72 -65 -155 -138 -82 -73 -184 -163 -225
-200 -287 -257 -416 -370 -422 -370 -5 0 -8 98 -8 218 l0 217 -111 -167 c-60
-93 -114 -168 -119 -168 -4 0 -57 75 -117 167 l-108 167 -3 -252 -2 -252 -120
0 -120 0 0 445 0 446 132 -3 133 -3 100 -162z m968 -399 c71 -16 160 -57 206
-94 l23 -20 -41 -53 c-92 -117 -98 -123 -118 -110 -123 85 -235 93 -332 22
-77 -55 -111 -173 -80 -282 13 -49 73 -115 124 -138 49 -23 161 -25 210 -5 34
15 35 17 35 70 l0 56 -91 0 -91 0 3 78 c1 42 5 83 7 90 3 9 53 12 203 12 l199
0 0 -204 0 -204 -47 -30 c-107 -69 -209 -97 -343 -95 -256 3 -434 152 -472
396 -8 55 -15 76 -24 73 -7 -3 -113 -81 -236 -173 -122 -92 -232 -174 -243
-182 -20 -14 -20 -14 0 6 25 25 829 739 873 776 29 23 42 27 98 27 36 0 97 -7
137 -16z"/>
</g>
</svg>
