<svg version="1" xmlns="http://www.w3.org/2000/svg" width="346.667" height="346.667" viewBox="0 0 260.000000 260.000000"><path d="M111.5 5.5C76.1 11 44.9 30.8 25.5 60-8 110.2-1.5 176.4 41 219c49.1 49.1 128.9 49.1 178 0 42.5-42.6 49-108.8 15.5-159-26.6-40.1-76-61.9-123-54.5zM91.5 74c5.6 9.1 10.5 16.5 10.9 16.5.4 0 5.4-7.4 11-16.5l10.3-16.5 12.6-.3 12.7-.3v26.6c0 20.5.3 26.5 1.3 26.5.6 0 7.7-5.1 15.7-11.3 22.1-17.2 36.7-28.2 35-26.5-1.3 1.4-19.9 17.9-38.5 34.2-3.8 3.3-13.3 11.8-21.2 18.8-7.8 7.1-14.5 12.8-15 12.8-.4 0-.7-7.8-.5-17.2.1-9.5-.1-19-.5-21.2l-.8-3.8-11.2 16.7-11.1 16.7-11.4-16.8-11.3-16.9-.3 25.2L79 146H55V56.9l13.2.3 13.1.3L91.5 74zm103.7 41.8c5.3 1.9 14 7.1 15.2 9 .3.5-2.7 4.5-6.5 9l-7 8.2-3.2-2.4c-4.4-3.3-11.8-5.6-18-5.6-9 .1-16.5 4.9-21 13.5-4.9 9.3-1.1 25.3 7.5 31.5 6.9 5 18.7 6.1 26.1 2.3 2.4-1.2 2.7-1.9 2.7-6.8V169h-17.1l.3-8.4.3-8.5 19.8-.6 19.7-.5v40.5l-4.3 2.6c-11.8 7.4-20.4 9.9-33.9 9.9s-23.4-3.2-32.6-10.7c-8.8-7.2-15.2-20.6-15.2-31.9 0-3-.4-5.4-.9-5.4s-11.2 7.7-23.7 17.1c-12.6 9.5-22 16.3-20.9 15.1 1.7-1.7 11.5-10.4 38.5-34.1 3.6-3.2 15.5-13.8 26.4-23.6l20-17.8 11 .6c7.4.3 13 1.2 16.8 2.5z"/></svg>